# xmcd
#
# Track frame offsets:
#	150
#	11887
#	24700
#	41475
#	53987
#	69400
#	81875
#	95637
#	106187
#	120237
#	133212
#	146587
#	157325
#	169875
#
# Disc length: 2487 seconds
#
# Revision: 5
# Processed by: cddbd v1.5.2PL0 Copyright (c) Steve Scherf et al.
# Submitted via: audiograbber 1.83.01
#
DISCID=c409b50e
DTITLE=Johnny Cash - Ring Of Fire
DYEAR=1997
DGENRE=Country
TTITLE0=Ring Of Fire
TTITLE1=I Walk The Line
TTITLE2=A Boy Named Sue
TTITLE3=Jackson
TTITLE4=The Night They Drove Old Dixie Down
TTITLE5=Folsom Prison Blues
TTITLE6=Don't Take Your Guns To Town
TTITLE7=Bonanza
TTITLE8=Orange Blossom Special
TTITLE9=Man In Black
TTITLE10=If I Were A Carpenter
TTITLE11=In The Jailhouse Now
TTITLE12=Peace In The Valley
TTITLE13=Riders In The Sky
EXTD=
EXTT0=
EXTT1=
EXTT2=
EXTT3=
EXTT4=
EXTT5=
EXTT6=
EXTT7=
EXTT8=
EXTT9=
EXTT10=
EXTT11=
EXTT12=
EXTT13=
PLAYORDER=
